<svg xmlns="http://www.w3.org/2000/svg" width="17" height="16" viewBox="0 0 17 16" fill="none">
  <g opacity="0.6">
    <path d="M12.1172 4H3.11719C2.98458 4 2.8574 4.05268 2.76363 4.14645C2.66987 4.24022 2.61719 4.36739 2.61719 4.5V13.5C2.61719 13.6326 2.66987 13.7598 2.76363 13.8536C2.8574 13.9473 2.98458 14 3.11719 14H12.1172C12.2498 14 12.377 13.9473 12.4707 13.8536C12.5645 13.7598 12.6172 13.6326 12.6172 13.5V4.5C12.6172 4.36739 12.5645 4.24022 12.4707 4.14645C12.377 4.05268 12.2498 4 12.1172 4ZM11.6172 13H3.61719V5H11.6172V13ZM14.6172 2.5V11.5C14.6172 11.6326 14.5645 11.7598 14.4707 11.8536C14.377 11.9473 14.2498 12 14.1172 12C13.9846 12 13.8574 11.9473 13.7636 11.8536C13.6699 11.7598 13.6172 11.6326 13.6172 11.5V3H5.11719C4.98458 3 4.8574 2.94732 4.76363 2.85355C4.66987 2.75979 4.61719 2.63261 4.61719 2.5C4.61719 2.36739 4.66987 2.24021 4.76363 2.14645C4.8574 2.05268 4.98458 2 5.11719 2H14.1172C14.2498 2 14.377 2.05268 14.4707 2.14645C14.5645 2.24021 14.6172 2.36739 14.6172 2.5Z" fill="#737171"/>
  </g>
</svg>