<svg xmlns="http://www.w3.org/2000/svg" width="25" height="24" viewBox="0 0 25 24" fill="none">
  <path d="M4.64893 14.25C3.40629 14.25 2.39893 13.2426 2.39893 12C2.39893 10.7574 3.40629 9.75 4.64893 9.75C5.89157 9.75 6.89893 10.7574 6.89893 12C6.89893 13.2426 5.89157 14.25 4.64893 14.25ZM12.1489 14.25C10.9063 14.25 9.89893 13.2426 9.89893 12C9.89893 10.7574 10.9063 9.75 12.1489 9.75C13.3916 9.75 14.3989 10.7574 14.3989 12C14.3989 13.2426 13.3916 14.25 12.1489 14.25ZM19.6489 14.25C18.4063 14.25 17.3989 13.2426 17.3989 12C17.3989 10.7574 18.4063 9.75 19.6489 9.75C20.8916 9.75 21.8989 10.7574 21.8989 12C21.8989 13.2426 20.8916 14.25 19.6489 14.25Z" fill="#161917"/>
</svg>