<svg xmlns="http://www.w3.org/2000/svg" width="24" height="25" viewBox="0 0 24 25" fill="none">
  <path d="M18.2197 1.00678C18.5126 0.713886 18.9875 0.713886 19.2804 1.00678L23.7804 5.50678C24.0732 5.79967 24.0732 6.27455 23.7804 6.56744L8.78035 21.5674C8.70853 21.6393 8.62287 21.6957 8.52856 21.7335L1.02856 24.7335C0.750002 24.8449 0.431839 24.7796 0.219692 24.5674C0.00754483 24.3553 -0.0577607 24.0371 0.0536643 23.7586L3.05366 16.2586C3.09139 16.1643 3.14787 16.0786 3.21969 16.0068L18.2197 1.00678ZM16.8107 4.53711L20.25 7.97645L22.1894 6.03711L18.75 2.59777L16.8107 4.53711ZM19.1894 9.03711L15.75 5.59777L6.00002 15.3478V15.7871H6.75002C7.16424 15.7871 7.50002 16.1229 7.50002 16.5371V17.2871H8.25002C8.66424 17.2871 9.00002 17.6229 9.00002 18.0371V18.7871H9.43936L19.1894 9.03711ZM4.5475 16.8003L4.38921 16.9586L2.09631 22.6908L7.82854 20.3979L7.98684 20.2396C7.70245 20.133 7.50002 19.8587 7.50002 19.5371V18.7871H6.75002C6.33581 18.7871 6.00002 18.4513 6.00002 18.0371V17.2871H5.25002C4.92842 17.2871 4.65409 17.0847 4.5475 16.8003Z" fill="#FFFCFC"/>
</svg>