<svg width="38" height="38" viewBox="0 0 38 38" fill="none" xmlns="http://www.w3.org/2000/svg">
<circle cx="19" cy="19" r="19" fill="#D9D9D9"/>
<path d="M22.3591 19.096C23.6504 19.7063 24.7514 20.6563 25.5443 21.8442C26.3372 23.0322 26.7921 24.4134 26.8604 25.84C26.8694 25.9707 26.8522 26.1019 26.8098 26.2259C26.7674 26.3498 26.7007 26.4641 26.6136 26.5619C26.5264 26.6597 26.4206 26.7392 26.3024 26.7955C26.1841 26.8519 26.0558 26.8841 25.925 26.8902C25.7941 26.8963 25.6633 26.8763 25.5403 26.8311C25.4173 26.786 25.3046 26.7168 25.2087 26.6275C25.1128 26.5383 25.0358 26.4307 24.982 26.3113C24.9282 26.1918 24.8989 26.0628 24.8957 25.9318C24.8242 24.4164 24.1718 22.9866 23.074 21.9394C21.9762 20.8922 20.5173 20.3079 19.0002 20.3079C17.483 20.3079 16.0241 20.8922 14.9263 21.9394C13.8285 22.9866 13.1762 24.4164 13.1047 25.9318C13.087 26.1884 12.9696 26.4278 12.7776 26.5988C12.5856 26.7698 12.3343 26.8589 12.0774 26.8469C11.8206 26.8349 11.5786 26.7228 11.4034 26.5346C11.2282 26.3464 11.1336 26.0971 11.1399 25.84C11.208 24.4135 11.6626 23.0323 12.4553 21.8444C13.248 20.6564 14.3488 19.7064 15.6399 19.096C14.8124 18.4057 14.2175 17.4772 13.9363 16.4368C13.6551 15.3965 13.7011 14.2948 14.0682 13.2816C14.4353 12.2683 15.1056 11.3928 15.988 10.774C16.8703 10.1552 17.9218 9.82324 18.9995 9.82324C20.0772 9.82324 21.1287 10.1552 22.0111 10.774C22.8934 11.3928 23.5637 12.2683 23.9308 13.2816C24.2979 14.2948 24.344 15.3965 24.0628 16.4368C23.7815 17.4772 23.1867 18.4057 22.3591 19.096ZM22.2791 15.0655C22.2791 14.1959 21.9336 13.3619 21.3187 12.747C20.7038 12.132 19.8698 11.7866 19.0002 11.7866C18.1305 11.7866 17.2965 12.132 16.6816 12.747C16.0667 13.3619 15.7213 14.1959 15.7213 15.0655C15.7213 15.9351 16.0667 16.7691 16.6816 17.3841C17.2965 17.999 18.1305 18.3444 19.0002 18.3444C19.8698 18.3444 20.7038 17.999 21.3187 17.3841C21.9336 16.7691 22.2791 15.9351 22.2791 15.0655Z" fill="black"/>
</svg>
