<svg xmlns="http://www.w3.org/2000/svg" width="24" height="25" viewBox="0 0 24 25" fill="none">
  <path d="M4.2988 22.9109C4.18211 23.5761 4.83845 24.0968 5.41812 23.7988L12.002 20.4149L18.5858 23.7988C19.1655 24.0968 19.8218 23.5761 19.7051 22.9109L18.4605 15.8167L23.744 10.7817C24.2378 10.3112 23.9822 9.45081 23.3207 9.35684L15.973 8.31304L12.6968 1.82322C12.4017 1.23861 11.6022 1.23861 11.3071 1.82322L8.03092 8.31304L0.683211 9.35684C0.0217272 9.45081 -0.233873 10.3112 0.259898 10.7817L5.5434 15.8167L4.2988 22.9109ZM11.6557 18.7587L6.12708 21.6003L7.16846 15.6643C7.21755 15.3845 7.12525 15.098 6.92434 14.9065L2.56409 10.7514L8.64254 9.88787C8.89382 9.85217 9.11322 9.69169 9.23176 9.45688L12.002 3.96938L14.7721 9.45688C14.8907 9.69169 15.1101 9.85217 15.3614 9.88787L21.4398 10.7514L17.0796 14.9065C16.8787 15.098 16.7864 15.3845 16.8354 15.6643L17.8768 21.6003L12.3482 18.7587C12.1298 18.6464 11.8741 18.6464 11.6557 18.7587Z" fill="#FFC107"/>
</svg>